<?xml version="1.0" standalone="no"?>
<svg xmlns:xlink="http://www.w3.org/1999/xlink" id="wave" style="transform:rotate(180deg); transition: 0.3s" viewBox="0 0 1440 490" version="1.1" xmlns="http://www.w3.org/2000/svg"><defs><linearGradient id="sw-gradient-0" x1="0" x2="0" y1="1" y2="0"><stop stop-color="rgba(144, 253, 45, 1)" offset="0%"/><stop stop-color="rgba(34, 193, 195, 1)" offset="100%"/></linearGradient></defs><path style="transform:translate(0, 0px); opacity:1" fill="url(#sw-gradient-0)" d="M0,49L26.7,49C53.3,49,107,49,160,40.8C213.3,33,267,16,320,65.3C373.3,114,427,229,480,269.5C533.3,310,587,278,640,236.8C693.3,196,747,147,800,122.5C853.3,98,907,98,960,114.3C1013.3,131,1067,163,1120,171.5C1173.3,180,1227,163,1280,138.8C1333.3,114,1387,82,1440,81.7C1493.3,82,1547,114,1600,163.3C1653.3,212,1707,278,1760,318.5C1813.3,359,1867,376,1920,383.8C1973.3,392,2027,392,2080,383.8C2133.3,376,2187,359,2240,294C2293.3,229,2347,114,2400,130.7C2453.3,147,2507,294,2560,310.3C2613.3,327,2667,212,2720,155.2C2773.3,98,2827,98,2880,106.2C2933.3,114,2987,131,3040,122.5C3093.3,114,3147,82,3200,106.2C3253.3,131,3307,212,3360,236.8C3413.3,261,3467,229,3520,220.5C3573.3,212,3627,229,3680,212.3C3733.3,196,3787,147,3813,122.5L3840,98L3840,490L3813.3,490C3786.7,490,3733,490,3680,490C3626.7,490,3573,490,3520,490C3466.7,490,3413,490,3360,490C3306.7,490,3253,490,3200,490C3146.7,490,3093,490,3040,490C2986.7,490,2933,490,2880,490C2826.7,490,2773,490,2720,490C2666.7,490,2613,490,2560,490C2506.7,490,2453,490,2400,490C2346.7,490,2293,490,2240,490C2186.7,490,2133,490,2080,490C2026.7,490,1973,490,1920,490C1866.7,490,1813,490,1760,490C1706.7,490,1653,490,1600,490C1546.7,490,1493,490,1440,490C1386.7,490,1333,490,1280,490C1226.7,490,1173,490,1120,490C1066.7,490,1013,490,960,490C906.7,490,853,490,800,490C746.7,490,693,490,640,490C586.7,490,533,490,480,490C426.7,490,373,490,320,490C266.7,490,213,490,160,490C106.7,490,53,490,27,490L0,490Z"/></svg>